# Rhino

g Blocchi_3
v -0.2455457597970963 0 1.369944214820862
v -0.2455457597970963 1 1.369944214820862
v 0.6427684426307678 0 0.9107080101966858
v 0.6427684426307678 1 0.9107080101966858
v 0.6427684426307678 0 0.9107080101966858
v 0.6427684426307678 1 0.9107080101966858
v 0.1835322380065918 0 0.02239381708204746
v 0.1835322380065918 1 0.02239381708204746
v 0.1835322380065918 0 0.02239381708204746
v 0.1835322380065918 1 0.02239381708204746
v -0.7047819495201111 0 0.4816300272941589
v -0.7047819495201111 1 0.4816300272941589
v -0.7047819495201111 0 0.4816300272941589
v -0.7047819495201111 1 0.4816300272941589
v -0.2455457597970963 0 1.369944214820862
v -0.2455457597970963 1 1.369944214820862
v -0.2455457597970963 0 1.369944214820862
v 0.6427684426307678 0 0.9107080101966858
v 0.1835322380065918 0 0.02239381708204746
v -0.7047819495201111 0 0.4816300272941589
v -0.2455457597970963 1 1.369944214820862
v 0.6427684426307678 1 0.9107080101966858
v 0.1835322380065918 1 0.02239381708204746
v -0.7047819495201111 1 0.4816300272941589
vt 0 0
vt 0 0.6666662096977234
vt 0.25 0
vt 0.25 0.6666662096977234
vt 0.25 0
vt 0.25 0.6666662096977234
vt 0.5 0
vt 0.5 0.6666662096977234
vt 0.5 0
vt 0.5 0.6666662096977234
vt 0.75 0
vt 0.75 0.6666662096977234
vt 0.75 0
vt 0.75 0.6666662096977234
vt 1 0
vt 1 0.6666662096977234
vt 0 1
vt 0.25 1
vt 0.25 0.6666668653488159
vt 0 0.6666668653488159
vt 0.75 0.6666668653488159
vt 1 0.6666668653488159
vt 1 1
vt 0.75 1
vn 0.459236204624176 0 0.8883141875267029
vn 0.459236204624176 0 0.8883141875267029
vn 0.459236204624176 0 0.8883141875267029
vn 0.459236204624176 0 0.8883141875267029
vn 0.8883141875267029 0 -0.459236204624176
vn 0.8883141875267029 0 -0.459236204624176
vn 0.8883141875267029 0 -0.459236204624176
vn 0.8883141875267029 0 -0.459236204624176
vn -0.459236204624176 0 -0.8883141875267029
vn -0.459236204624176 0 -0.8883141875267029
vn -0.459236204624176 0 -0.8883141875267029
vn -0.459236204624176 0 -0.8883141875267029
vn -0.8883141875267029 0 0.459236204624176
vn -0.8883141875267029 0 0.459236204624176
vn -0.8883141875267029 0 0.459236204624176
vn -0.8883141875267029 0 0.459236204624176
vn 0 -1 0
vn 0 -1 0
vn 0 -1 0
vn 0 -1 0
vn 0 1 0
vn 0 1 0
vn 0 1 0
vn 0 1 0
f 1/1/1 3/3/3 4/4/4 2/2/2
f 5/5/5 7/7/7 8/8/8 6/6/6
f 9/9/9 11/11/11 12/12/12 10/10/10
f 13/13/13 15/15/15 16/16/16 14/14/14
f 18/18/18 17/17/17 20/20/20
f 20/20/20 19/19/19 18/18/18
f 22/22/22 24/24/24 21/21/21
f 24/24/24 22/22/22 23/23/23
v 0.2264076471328735 0 -0.4211315512657166
v 0.2264076471328735 1 -0.4211315512657166
v 1.226407647132874 0 -0.4211315512657166
v 1.226407647132874 1 -0.4211315512657166
v 1.226407647132874 0 -0.4211315512657166
v 1.226407647132874 1 -0.4211315512657166
v 1.226407647132874 0 -1.421131610870361
v 1.226407647132874 1 -1.421131610870361
v 1.226407647132874 0 -1.421131610870361
v 1.226407647132874 1 -1.421131610870361
v 0.2264076471328735 0 -1.421131610870361
v 0.2264076471328735 1 -1.421131610870361
v 0.2264076471328735 0 -1.421131610870361
v 0.2264076471328735 1 -1.421131610870361
v 0.2264076471328735 0 -0.4211315512657166
v 0.2264076471328735 1 -0.4211315512657166
v 0.2264076471328735 0 -0.4211315512657166
v 1.226407647132874 0 -0.4211315512657166
v 1.226407647132874 0 -1.421131610870361
v 0.2264076471328735 0 -1.421131610870361
v 0.2264076471328735 1 -0.4211315512657166
v 1.226407647132874 1 -0.4211315512657166
v 1.226407647132874 1 -1.421131610870361
v 0.2264076471328735 1 -1.421131610870361
vt 0 0
vt 0 0.6666662096977234
vt 0.25 0
vt 0.25 0.6666662096977234
vt 0.25 0
vt 0.25 0.6666662096977234
vt 0.5 0
vt 0.5 0.6666662096977234
vt 0.5 0
vt 0.5 0.6666662096977234
vt 0.75 0
vt 0.75 0.6666662096977234
vt 0.75 0
vt 0.75 0.6666662096977234
vt 1 0
vt 1 0.6666662096977234
vt 0 1
vt 0.25 1
vt 0.25 0.6666668653488159
vt 0 0.6666668653488159
vt 0.75 0.6666668653488159
vt 1 0.6666668653488159
vt 1 1
vt 0.75 1
vn 0 0 1
vn 0 0 1
vn 0 0 1
vn 0 0 1
vn 1 0 0
vn 1 0 0
vn 1 0 0
vn 1 0 0
vn 0 0 -1
vn 0 0 -1
vn 0 0 -1
vn 0 0 -1
vn -1 0 0
vn -1 0 0
vn -1 0 0
vn -1 0 0
vn 0 -1 0
vn 0 -1 0
vn 0 -1 0
vn 0 -1 0
vn 0 1 0
vn 0 1 0
vn 0 1 0
vn 0 1 0
f 25/25/25 27/27/27 28/28/28 26/26/26
f 29/29/29 31/31/31 32/32/32 30/30/30
f 33/33/33 35/35/35 36/36/36 34/34/34
f 37/37/37 39/39/39 40/40/40 38/38/38
f 42/42/42 41/41/41 44/44/44
f 44/44/44 43/43/43 42/42/42
f 46/46/46 48/48/48 45/45/45
f 48/48/48 46/46/46 47/47/47
v -1.196691870689392 0 -0.2394779026508331
v -1.196691870689392 1 -0.2394779026508331
v -0.2014603167772293 0 -0.337018758058548
v -0.2014603167772293 1 -0.337018758058548
v -0.2014603167772293 0 -0.337018758058548
v -0.2014603167772293 1 -0.337018758058548
v -0.299001157283783 0 -1.332250237464905
v -0.299001157283783 1 -1.332250237464905
v -0.299001157283783 0 -1.332250237464905
v -0.299001157283783 1 -1.332250237464905
v -1.294232726097107 0 -1.23470938205719
v -1.294232726097107 1 -1.23470938205719
v -1.294232726097107 0 -1.23470938205719
v -1.294232726097107 1 -1.23470938205719
v -1.196691870689392 0 -0.2394779026508331
v -1.196691870689392 1 -0.2394779026508331
v -1.196691870689392 0 -0.2394779026508331
v -0.2014603167772293 0 -0.337018758058548
v -0.299001157283783 0 -1.332250237464905
v -1.294232726097107 0 -1.23470938205719
v -1.196691870689392 1 -0.2394779026508331
v -0.2014603167772293 1 -0.337018758058548
v -0.299001157283783 1 -1.332250237464905
v -1.294232726097107 1 -1.23470938205719
vt 0 0
vt 0 0.6666662096977234
vt 0.25 0
vt 0.25 0.6666662096977234
vt 0.25 0
vt 0.25 0.6666662096977234
vt 0.5 0
vt 0.5 0.6666662096977234
vt 0.5 0
vt 0.5 0.6666662096977234
vt 0.75 0
vt 0.75 0.6666662096977234
vt 0.75 0
vt 0.75 0.6666662096977234
vt 1 0
vt 1 0.6666662096977234
vt 0 1
vt 0.25 1
vt 0.25 0.6666668653488159
vt 0 0.6666668653488159
vt 0.75 0.6666668653488159
vt 1 0.6666668653488159
vt 1 1
vt 0.75 1
vn 0.09754084795713425 0 0.9952315092086792
vn 0.09754084795713425 0 0.9952315092086792
vn 0.09754084795713425 0 0.9952315092086792
vn 0.09754084795713425 0 0.9952315092086792
vn 0.9952315092086792 0 -0.09754084795713425
vn 0.9952315092086792 0 -0.09754084795713425
vn 0.9952315092086792 0 -0.09754084795713425
vn 0.9952315092086792 0 -0.09754084795713425
vn -0.09754084795713425 0 -0.9952315092086792
vn -0.09754084795713425 0 -0.9952315092086792
vn -0.09754084795713425 0 -0.9952315092086792
vn -0.09754084795713425 0 -0.9952315092086792
vn -0.9952315092086792 0 0.09754084795713425
vn -0.9952315092086792 0 0.09754084795713425
vn -0.9952315092086792 0 0.09754084795713425
vn -0.9952315092086792 0 0.09754084795713425
vn 0 -1 0
vn 0 -1 0
vn 0 -1 0
vn 0 -1 0
vn 0 1 0
vn 0 1 0
vn 0 1 0
vn 0 1 0
f 49/49/49 51/51/51 52/52/52 50/50/50
f 53/53/53 55/55/55 56/56/56 54/54/54
f 57/57/57 59/59/59 60/60/60 58/58/58
f 61/61/61 63/63/63 64/64/64 62/62/62
f 66/66/66 65/65/65 68/68/68
f 68/68/68 67/67/67 66/66/66
f 70/70/70 72/72/72 69/69/69
f 72/72/72 70/70/70 71/71/71
